<?xml version="1.0" encoding="UTF-8"?>
<svg width="1270px" height="409px" viewBox="0 0 1270 409" version="1.1" xmlns="http://www.w3.org/2000/svg" xmlns:xlink="http://www.w3.org/1999/xlink">
    <!-- Generator: Sketch 62 (91390) - https://sketch.com -->
    <title>trace</title>
    <desc>Created with Sketch.</desc>
    <g id="Page-1" stroke="none" stroke-width="1" fill="none" fill-rule="evenodd">
        <g id="trace">
            <g id="bird" transform="translate(0.001998, 0.385474)">
                <g id="Group" transform="translate(-0.001998, 128.614526)">
                    <rect id="Rectangle" stroke="#838383" stroke-width="16" fill="#FAF2EA" x="8" y="8" width="1114" height="264" rx="96"></rect>
                    <g id="Group-2" transform="translate(879.000000, 165.000000)" fill="#000000">
                        <circle id="Oval" cx="18" cy="18" r="18"></circle>
                        <circle id="Oval" cx="72" cy="19" r="18"></circle>
                        <circle id="Oval" cx="126" cy="19" r="18"></circle>
                    </g>
                    <text id="Prompt" font-family="Comfortaa-Bold, Comfortaa" font-size="128" font-weight="bold" fill="#000000">
                        <tspan x="240" y="183">Prompt</tspan>
                    </text>
                </g>
                <path d="M1133.498,0.190525534 C1131.848,0.406525534 1126.673,1.08952553 1121.998,1.70752553 C1106.593,3.74252553 1091.368,9.16452553 1075.721,18.1875255 C1043.814,36.5875255 1017.094,73.0755255 1008.933,109.389526 C1005.545,124.467526 1005.034,130.837526 1005.016,158.226526 L1004.998,186.338526 L983.248002,208.511526 C961.301002,230.886526 957,236.381526 957,242.021526 C957,248.983526 963.904002,256.614526 970.196002,256.614526 C976.396002,256.614526 979.773002,253.996526 1002.608,231.491526 L1018.718,215.614526 L1111.823,215.614526 C1209.89,215.614526 1207.675,215.704526 1216.998,211.344526 C1230.445,205.056526 1248.013,186.324526 1257.072,168.614526 C1261.992,158.997526 1263.844,153.877526 1267.56,139.614526 C1269.636,131.646526 1269.959,108.941526 1268.121,100.114526 C1261.709,69.3125255 1248.442,47.9665255 1222.991,27.5015255 C1213.318,19.7225255 1193.794,9.61852553 1182.498,6.54352553 C1173.464,4.08552553 1170.801,3.47152553 1163.498,2.16452553 C1154.927,0.629525534 1138.418,-0.456474466 1133.498,0.190525534" id="Path" fill="#FAF2EA"></path>
                <path d="M1133.498,0.190525534 C1131.848,0.406525534 1126.673,1.08952553 1121.998,1.70752553 C1106.593,3.74252553 1091.368,9.16452553 1075.721,18.1875255 C1043.814,36.5875255 1017.094,73.0755255 1008.933,109.389526 C1005.545,124.467526 1005.034,130.837526 1005.016,158.226526 L1004.998,186.338526 L983.248002,208.511526 C961.301002,230.886526 957,236.381526 957,242.021526 C957,248.983526 963.904002,256.614526 970.196002,256.614526 C976.396002,256.614526 979.773002,253.996526 1002.608,231.491526 L1018.718,215.614526 L1111.823,215.614526 C1209.89,215.614526 1207.675,215.704526 1216.998,211.344526 C1230.445,205.056526 1248.013,186.324526 1257.072,168.614526 C1261.992,158.997526 1263.844,153.877526 1267.56,139.614526 C1269.636,131.646526 1269.959,108.941526 1268.121,100.114526 C1261.709,69.3125255 1248.442,47.9665255 1222.991,27.5015255 C1213.318,19.7225255 1193.794,9.61852553 1182.498,6.54352553 C1173.464,4.08552553 1170.801,3.47152553 1163.498,2.16452553 C1154.927,0.629525534 1138.418,-0.456474466 1133.498,0.190525534" id="Path" fill="#0B0A0A"></path>
                <path d="M1126.998,32.0915255 C1104.05,35.7615255 1083.426,46.4085255 1065.937,63.6145255 C1053.117,76.2275255 1046.326,87.2075255 1040.269,105.114526 C1035.027,120.612526 1034.57,124.671526 1034.533,156.114526 L1034.498,185.114526 L1117.29,185.370526 C1212.997,185.665526 1204.233,186.609526 1216.057,174.732526 C1240.827,149.848526 1247.699,114.687526 1233.668,84.6145255 C1216.541,47.9045255 1170.348,25.1605255 1126.998,32.0915255" id="Path" fill="#0B0A0A"></path>
                <path d="M1126.998,32.0915255 C1104.05,35.7615255 1083.426,46.4085255 1065.937,63.6145255 C1053.117,76.2275255 1046.326,87.2075255 1040.269,105.114526 C1035.027,120.612526 1034.57,124.671526 1034.533,156.114526 L1034.498,185.114526 L1117.29,185.370526 C1212.997,185.665526 1204.233,186.609526 1216.057,174.732526 C1240.827,149.848526 1247.699,114.687526 1233.668,84.6145255 C1216.541,47.9045255 1170.348,25.1605255 1126.998,32.0915255" id="Path" fill="#FAF2EA"></path>
                <path d="M1071.95,110.867526 C1065.932,114.923526 1064.51,118.709526 1064.50385,130.691526 C1064.498,140.639526 1064.658,141.478526 1067.192,144.800526 C1073.139,152.599526 1082.948,153.597526 1089.479,147.067526 C1091.357,145.188526 1093.365,141.956526 1093.94,139.883526 C1095.515,134.212526 1095.236,122.249526 1093.423,117.718526 C1090.083,109.371526 1079.283,105.925526 1071.95,110.867526" id="Path" fill="#0B0A0A"></path>
            </g>
        </g>
    </g>
</svg>