<?xml version="1.0" encoding="UTF-8"?>
<svg width="192px" height="158px" viewBox="0 0 192 158" version="1.1" xmlns="http://www.w3.org/2000/svg" xmlns:xlink="http://www.w3.org/1999/xlink">
    <!-- Generator: Sketch 62 (91390) - https://sketch.com -->
    <title>trace</title>
    <desc>Created with Sketch.</desc>
    <g id="Page-1" stroke="none" stroke-width="1" fill="none" fill-rule="evenodd">
        <g id="trace" transform="translate(0.000000, -1.000000)">
            <g id="bird" transform="translate(0.001998, 0.385474)">
                <path d="M108.498476,0.731833915 C107.484154,0.864827166 104.302871,1.28535675 101.428959,1.66586522 C91.9588817,2.91883404 82.5994572,6.25721093 72.9806123,11.8127577 C53.3660864,23.1418124 36.9402196,45.6078205 31.9233222,67.9666951 C29.8405813,77.2503629 29.5264489,81.1724323 29.5153835,98.0360997 L29.5043182,115.344925 L16.1337118,128.997052 C2.64200152,142.773552 -0.00199843335,146.156875 -0.00199843335,149.629477 C-0.00199843335,153.916046 4.24217111,158.614526 8.11011848,158.614526 C11.9215097,158.614526 13.9974885,157.002598 28.0350883,143.146056 L37.9385582,133.370436 L95.1739746,133.370436 C155.459734,133.370436 154.098083,133.42585 159.829309,130.741357 C168.095725,126.869775 178.895487,115.336305 184.464421,104.43209 C187.488944,98.5108117 188.627444,95.3583791 190.91182,86.5765146 C192.188021,81.6705413 192.386582,67.6908572 191.256689,62.2559895 C187.314973,43.2909056 179.15921,30.1479708 163.513449,17.5474759 C157.567064,12.7578718 145.56487,6.53674304 138.620761,4.64343634 C133.067195,3.1300224 131.430141,2.75197677 126.940691,1.94724446 C121.67175,1.00213038 111.522999,0.333469871 108.498476,0.731833915" id="Path" fill="#FAF2EA"></path>
                <path d="M108.498476,0.731833915 C107.484154,0.864827166 104.302871,1.28535675 101.428959,1.66586522 C91.9588817,2.91883404 82.5994572,6.25721093 72.9806123,11.8127577 C53.3660864,23.1418124 36.9402196,45.6078205 31.9233222,67.9666951 C29.8405813,77.2503629 29.5264489,81.1724323 29.5153835,98.0360997 L29.5043182,115.344925 L16.1337118,128.997052 C2.64200152,142.773552 -0.00199843335,146.156875 -0.00199843335,149.629477 C-0.00199843335,153.916046 4.24217111,158.614526 8.11011848,158.614526 C11.9215097,158.614526 13.9974885,157.002598 28.0350883,143.146056 L37.9385582,133.370436 L95.1739746,133.370436 C155.459734,133.370436 154.098083,133.42585 159.829309,130.741357 C168.095725,126.869775 178.895487,115.336305 184.464421,104.43209 C187.488944,98.5108117 188.627444,95.3583791 190.91182,86.5765146 C192.188021,81.6705413 192.386582,67.6908572 191.256689,62.2559895 C187.314973,43.2909056 179.15921,30.1479708 163.513449,17.5474759 C157.567064,12.7578718 145.56487,6.53674304 138.620761,4.64343634 C133.067195,3.1300224 131.430141,2.75197677 126.940691,1.94724446 C121.67175,1.00213038 111.522999,0.333469871 108.498476,0.731833915" id="Path" fill="#0B0A0A"></path>
                <path d="M103.927537,20.3763964 C89.8040886,22.6306001 77.1109563,29.1702478 66.3472736,39.7385936 C58.4571477,47.4858065 54.2775967,54.2299909 50.5497891,65.228908 C47.323577,74.7481585 47.0423143,77.2412955 47.0195425,96.5543547 L46.9980016,114.366864 L97.9527054,114.524105 C156.856003,114.705301 151.462161,115.285129 158.739294,107.989985 C173.9841,92.7056243 178.213503,71.1088786 169.578062,52.6373069 C159.037174,30.0891275 130.607487,16.1192068 103.927537,20.3763964" id="Path" fill="#0B0A0A"></path>
                <path d="M103.927537,20.3763964 C89.8040886,22.6306001 77.1109563,29.1702478 66.3472736,39.7385936 C58.4571477,47.4858065 54.2775967,54.2299909 50.5497891,65.228908 C47.323577,74.7481585 47.0423143,77.2412955 47.0195425,96.5543547 L46.9980016,114.366864 L97.9527054,114.524105 C156.856003,114.705301 151.462161,115.285129 158.739294,107.989985 C173.9841,92.7056243 178.213503,71.1088786 169.578062,52.6373069 C159.037174,30.0891275 130.607487,16.1192068 103.927537,20.3763964" id="Path" fill="#FAF2EA"></path>
                <path d="M70.6418223,69.0012256 C66.8886737,71.4656247 66.001838,73.7659735 65.9980016,81.0461584 C65.9943541,87.0904982 66.0941388,87.6002692 67.6744775,89.6186946 C71.3833467,94.3573161 77.5007669,94.9636944 81.5738499,90.996109 C82.7450718,89.8544409 83.9973686,87.8906988 84.3559696,86.6311576 C85.3382243,83.185495 85.1642249,75.9168544 84.0335405,73.1638484 C81.9505368,68.0922657 75.2150757,65.9984986 70.6418223,69.0012256" id="Path" fill="#0B0A0A"></path>
            </g>
        </g>
    </g>
</svg>