<svg width="167" height="137" viewBox="0 0 167 137" fill="none" xmlns="http://www.w3.org/2000/svg">
<g id="_&#229;&#155;&#190;&#229;&#177;&#130;_1" clip-path="url(#clip0_1_66)">
<g id="Group">
<path id="Vector" d="M98.2301 11.4044C55.9124 11.4044 21.5864 45.6177 21.5864 87.7964V95.1152C21.5864 110.84 31.9078 118.13 44.6768 118.13H117.546C139.752 118.13 157.74 100.2 157.74 78.0674V70.6898C157.74 37.9461 131.111 11.4044 98.2596 11.4044H98.2301Z" fill="white"/>
<path id="Vector_2" d="M117.516 127.359H44.6768C25.3316 127.359 12.3267 114.397 12.3267 95.1152V87.7964C12.2972 40.5621 50.8402 2.14569 98.2301 2.14569C136.154 2.14569 167 32.8906 167 70.6898V78.0674C167 105.256 144.794 127.389 117.516 127.389V127.359ZM98.2301 20.6338C61.0731 20.6338 30.8757 50.7614 30.8757 87.767V95.0858C30.8757 104.227 35.5056 108.842 44.6768 108.842H117.546C134.591 108.842 148.451 95.027 148.451 78.038V70.6604C148.451 43.0605 125.921 20.6338 98.2596 20.6338H98.2301Z" fill="#231815"/>
</g>
<path id="Vector_3" d="M59.2742 95.027C53.8776 95.027 49.4837 90.6475 49.4837 85.2686V74.599C49.4837 69.2201 53.8776 64.8406 59.2742 64.8406C64.6708 64.8406 69.0648 69.2201 69.0648 74.599V85.2686C69.0648 90.6475 64.6708 95.027 59.2742 95.027Z" fill="#231815"/>
<path id="Vector_4" d="M14.7448 108.048C15.3641 110.546 0.383366 134.502 0.383366 134.502C-0.501324 135.56 0.383366 137.353 1.62193 136.941C1.62193 136.941 42.4651 127.477 48.1861 127.359" fill="#231815"/>
<path id="Vector_5" d="M103.627 2.4102C123.385 4.8792 138.66 3.05684 150.692 0.0293816C152.019 -0.29394 153.14 1.05813 152.58 2.29263L149.306 9.3763C145.325 19.2229 148.657 24.0139 148.657 24.0139" fill="#231815"/>
</g>
<defs>
<clipPath id="clip0_1_66">
<rect width="167" height="137" fill="white"/>
</clipPath>
</defs>
</svg>
