<svg width="237" height="237" viewBox="0 0 237 237" fill="none" xmlns="http://www.w3.org/2000/svg">
<g id="Group">
<path id="Vector" d="M184.49 0H52.15C23.3484 0 0 23.3484 0 52.15V184.49C0 213.292 23.3484 236.64 52.15 236.64H184.49C213.292 236.64 236.64 213.292 236.64 184.49V52.15C236.64 23.3484 213.292 0 184.49 0Z" fill="#006DEC"/>
<g id="Group_2">
<path id="Vector_2" d="M144.82 173.17H80.24C63.09 173.17 51.56 161.65 51.56 144.49V137.97C51.56 95.98 85.72 61.81 127.72 61.81C161.33 61.81 188.67 89.15 188.67 122.76V129.31C188.67 153.49 169 173.16 144.82 173.16V173.17ZM127.72 78.26C94.79 78.26 68.01 105.05 68.01 137.97V144.49C68.01 152.61 72.13 156.72 80.24 156.72H144.82C159.93 156.72 172.23 144.43 172.23 129.32V122.77C172.23 98.23 152.27 78.27 127.73 78.27L127.72 78.26Z" fill="white"/>
<path id="Vector_3" d="M93.19 144.41C88.4 144.41 84.51 140.52 84.51 135.73V126.25C84.51 121.46 88.4 117.57 93.19 117.57C97.98 117.57 101.87 121.46 101.87 126.25V135.73C101.87 140.52 97.98 144.41 93.19 144.41Z" fill="white"/>
<path id="Vector_4" d="M53.72 156C54.26 158.23 40.98 179.52 40.98 179.52C40.19 180.45 41 182.06 42.07 181.68C42.07 181.68 78.26 173.27 83.34 173.15" fill="white"/>
<path id="Vector_5" d="M132.51 62.06C150.03 64.25 163.57 62.63 174.23 59.95C175.42 59.65 176.41 60.86 175.9 61.97L172.99 68.27C169.47 77.03 172.4 81.28 172.4 81.28" fill="white"/>
</g>
</g>
</svg>
