<svg xmlns="http://www.w3.org/2000/svg" width="512" height="512" viewBox="0 0 512 512" version="1.1">
    <path d="M 13.127 112.502 C 12.331 117.858, 12 162.736, 12 265.453 C 12 421.231, 11.845 416.025, 16.979 432.682 C 23.367 453.406, 38.341 474.134, 56.896 487.935 C 64.235 493.393, 77.943 500.348, 87.555 503.490 C 105.083 509.218, 101.406 509.106, 261 508.782 L 407.500 508.485 417.277 505.793 C 427.946 502.856, 442.853 496.201, 451.198 490.649 C 475.157 474.709, 492.234 449.295, 498.001 420.995 C 499.946 411.453, 500 407.222, 500 265.634 C 500 127.351, 499.573 103.094, 497.179 105.488 C 496.867 105.799, 496.506 170.489, 496.376 249.242 C 496.206 351.834, 495.818 393.716, 495.007 396.965 C 491.360 411.563, 490.812 413.148, 485.665 424 C 480.347 435.211, 475.236 442.693, 466.906 451.462 C 451.090 468.113, 431.754 478.435, 408.765 482.501 C 401.770 483.739, 378.175 483.966, 255.193 483.982 C 159.276 483.994, 108.291 483.650, 105.193 482.971 C 102.612 482.406, 98.250 481.473, 95.500 480.898 C 88.688 479.474, 86.086 478.478, 74.500 472.852 C 62.551 467.050, 53.634 460.535, 44.744 451.112 C 38.794 444.804, 30 433.083, 30 431.459 C 30 431.101, 29.176 429.614, 28.168 428.154 C 27.161 426.694, 24.964 421.900, 23.287 417.500 C 20.365 409.837, 19.520 407.078, 16.993 396.963 C 16.179 393.706, 15.803 352.008, 15.659 249.276 C 15.549 170.543, 15.188 105.855, 14.857 105.524 C 14.526 105.192, 13.747 108.333, 13.127 112.502 M 284.500 117.576 C 282.850 117.792, 277.675 118.475, 273 119.093 C 257.595 121.128, 242.370 126.550, 226.723 135.573 C 194.816 153.973, 168.096 190.461, 159.935 226.775 C 156.547 241.853, 156.036 248.223, 156.018 275.612 L 156 303.724 134.250 325.897 C 112.303 348.272, 107.999 353.767, 108.002 359.407 C 108.005 366.369, 114.906 374, 121.198 374 C 127.398 374, 130.775 371.382, 153.610 348.877 L 169.720 333 262.825 333 C 360.892 333, 358.677 333.090, 368 328.730 C 381.447 322.442, 399.015 303.710, 408.074 286 C 412.994 276.383, 414.846 271.263, 418.562 257 C 420.638 249.032, 420.961 226.327, 419.123 217.500 C 412.711 186.698, 399.444 165.352, 373.993 144.887 C 364.320 137.108, 344.796 127.004, 333.500 123.929 C 324.466 121.471, 321.803 120.857, 314.500 119.550 C 305.929 118.015, 289.420 116.929, 284.500 117.576 M 278 149.477 C 255.052 153.147, 234.428 163.794, 216.939 181 C 204.119 193.613, 197.328 204.593, 191.271 222.500 C 186.029 237.998, 185.572 242.057, 185.535 273.500 L 185.500 302.500 268.292 302.756 C 363.999 303.051, 355.235 303.995, 367.059 292.118 C 391.829 267.234, 398.701 232.073, 384.670 202 C 367.543 165.290, 321.350 142.546, 278 149.477 M 222.952 228.253 C 216.934 232.309, 215.512 236.095, 215.506 248.077 C 215.500 258.025, 215.660 258.864, 218.194 262.186 C 224.141 269.985, 233.950 270.983, 240.481 264.453 C 242.359 262.574, 244.367 259.342, 244.942 257.269 C 246.517 251.598, 246.238 239.635, 244.425 235.104 C 241.085 226.757, 230.285 223.311, 222.952 228.253"
          stroke="none" fill="#000" fill-rule="evenodd"/>
    <path d="M 101.500 4.210 C 87.031 7.672, 83.740 8.828, 72.990 14.225 C 56.931 22.286, 39.083 38.523, 31.094 52.340 C 22.615 67.004, 19.830 73.770, 16.828 87 C 15.331 93.595, 15.501 390.965, 17.005 397 C 19.501 407.016, 20.365 409.836, 23.287 417.500 C 24.964 421.900, 27.161 426.694, 28.168 428.154 C 29.176 429.614, 30 431.101, 30 431.459 C 30 433.083, 38.794 444.804, 44.744 451.112 C 53.634 460.535, 62.551 467.050, 74.500 472.852 C 86.086 478.478, 88.688 479.474, 95.500 480.898 C 98.250 481.473, 102.612 482.406, 105.193 482.971 C 108.291 483.650, 159.276 483.994, 255.193 483.982 C 378.175 483.966, 401.770 483.739, 408.765 482.501 C 431.754 478.435, 451.090 468.113, 466.906 451.462 C 475.236 442.693, 480.347 435.211, 485.665 424 C 490.810 413.153, 491.374 411.522, 494.996 397 C 496.514 390.917, 497.319 97.757, 495.838 90.500 C 493.162 77.387, 491.375 72.145, 485.775 60.990 C 477.714 44.931, 461.477 27.083, 447.660 19.094 C 432.924 10.574, 426.152 7.896, 409.736 4.101 C 403.584 2.679, 107.460 2.784, 101.500 4.210 M 284.500 117.576 C 282.850 117.792, 277.675 118.475, 273 119.093 C 257.595 121.128, 242.370 126.550, 226.723 135.573 C 194.816 153.973, 168.096 190.461, 159.935 226.775 C 156.547 241.853, 156.036 248.223, 156.018 275.612 L 156 303.724 134.250 325.897 C 112.303 348.272, 107.999 353.767, 108.002 359.407 C 108.005 366.369, 114.906 374, 121.198 374 C 127.398 374, 130.775 371.382, 153.610 348.877 L 169.720 333 262.825 333 C 360.892 333, 358.677 333.090, 368 328.730 C 381.447 322.442, 399.015 303.710, 408.074 286 C 412.994 276.383, 414.846 271.263, 418.562 257 C 420.638 249.032, 420.961 226.327, 419.123 217.500 C 412.711 186.698, 399.444 165.352, 373.993 144.887 C 364.320 137.108, 344.796 127.004, 333.500 123.929 C 324.466 121.471, 321.803 120.857, 314.500 119.550 C 305.929 118.015, 289.420 116.929, 284.500 117.576 M 278 149.477 C 255.052 153.147, 234.428 163.794, 216.939 181 C 204.119 193.613, 197.328 204.593, 191.271 222.500 C 186.029 237.998, 185.572 242.057, 185.535 273.500 L 185.500 302.500 268.292 302.756 C 363.999 303.051, 355.235 303.995, 367.059 292.118 C 391.829 267.234, 398.701 232.073, 384.670 202 C 367.543 165.290, 321.350 142.546, 278 149.477 M 222.952 228.253 C 216.934 232.309, 215.512 236.095, 215.506 248.077 C 215.500 258.025, 215.660 258.864, 218.194 262.186 C 224.141 269.985, 233.950 270.983, 240.481 264.453 C 242.359 262.574, 244.367 259.342, 244.942 257.269 C 246.517 251.598, 246.238 239.635, 244.425 235.104 C 241.085 226.757, 230.285 223.311, 222.952 228.253"
          stroke="none" fill="#F8F4EA" fill-rule="evenodd"/>
</svg>
