<svg width="238" height="237" viewBox="0 0 238 237" fill="none" xmlns="http://www.w3.org/2000/svg">
<g id="Group">
<path id="Vector" d="M185.08 0.27002H52.74C23.9383 0.27002 0.589966 23.6184 0.589966 52.42V184.76C0.589966 213.562 23.9383 236.91 52.74 236.91H185.08C213.882 236.91 237.23 213.562 237.23 184.76V52.42C237.23 23.6184 213.882 0.27002 185.08 0.27002Z" fill="url(#paint0_linear_4_95)"/>
<g id="Group_2">
<path id="Vector_2" d="M145.41 173.44H80.83C63.68 173.44 52.15 161.92 52.15 144.76V138.24C52.15 96.25 86.31 62.08 128.31 62.08C161.92 62.08 189.26 89.42 189.26 123.03V129.58C189.26 153.76 169.59 173.43 145.41 173.43V173.44ZM128.31 78.53C95.38 78.53 68.6 105.32 68.6 138.24V144.76C68.6 152.88 72.72 156.99 80.83 156.99H145.41C160.52 156.99 172.82 144.7 172.82 129.59V123.04C172.82 98.5 152.86 78.54 128.32 78.54L128.31 78.53Z" fill="white"/>
<path id="Vector_3" d="M93.78 144.68C88.99 144.68 85.1 140.79 85.1 136V126.52C85.1 121.73 88.99 117.84 93.78 117.84C98.57 117.84 102.46 121.73 102.46 126.52V136C102.46 140.79 98.57 144.68 93.78 144.68Z" fill="white"/>
<path id="Vector_4" d="M54.31 156.26C54.85 158.49 41.57 179.78 41.57 179.78C40.78 180.71 41.59 182.32 42.66 181.94C42.66 181.94 78.85 173.53 83.93 173.41" fill="white"/>
<path id="Vector_5" d="M133.1 62.33C150.62 64.52 164.16 62.9 174.82 60.22C176.01 59.92 177 61.13 176.49 62.24L173.58 68.54C170.06 77.3 172.99 81.55 172.99 81.55" fill="white"/>
</g>
</g>
<defs>
<linearGradient id="paint0_linear_4_95" x1="15.08" y1="10.08" x2="229.63" y2="234.3" gradientUnits="userSpaceOnUse">
<stop stop-color="#FF0D59"/>
<stop offset="0.08" stop-color="#FF2B57"/>
<stop offset="0.27" stop-color="#FF7755"/>
<stop offset="0.46" stop-color="#FFD252"/>
<stop offset="0.51" stop-color="#CCCE76"/>
<stop offset="0.56" stop-color="#94CA9F"/>
<stop offset="0.61" stop-color="#68C7C0"/>
<stop offset="0.65" stop-color="#48C4D7"/>
<stop offset="0.69" stop-color="#34C3E5"/>
<stop offset="0.71" stop-color="#2EC3EB"/>
<stop offset="0.77" stop-color="#2EBFEA"/>
<stop offset="0.81" stop-color="#2FB5E7"/>
<stop offset="0.86" stop-color="#31A5E3"/>
<stop offset="0.89" stop-color="#348DDC"/>
<stop offset="0.93" stop-color="#386ED4"/>
<stop offset="0.97" stop-color="#3C4ACA"/>
<stop offset="1" stop-color="#421ABE"/>
</linearGradient>
</defs>
</svg>
